<svg width="200" height="300" xmlns="http://www.w3.org/2000/svg">
 <defs>
  <style>.cls-1{fill:#142a2b;}.cls-2{fill:#863b1d;}</style>
 </defs>
 <g>
  <title>background</title>
  <rect fill="none" id="canvas_background" height="302" width="202" y="-1" x="-1"/>
 </g>
 <g>
  <title>Layer 1</title>
  <path id="svg_2" d="m130.79,205.845c9.67,-25.63 20.71,-54.88 31.74,-84.13c-10.48,6.64 -16.64,0.21 -21.87,-4.71c-10.23,-9.63 -19.48,-20 -28.65,-29.56l15.65,-9.77l-20,-8.3l-7.67,-23.72l-0.19,0.65c-3.15,9.77 -5.27,16.36 -7.44,23.1l-20,8.3l15.63,9.77c-9.17,9.56 -18.41,19.94 -28.64,29.56c-5.24,4.92 -11.4,11.36 -21.88,4.71c11,29.25 22.07,58.5 31.74,84.14l-16.31,14l17.82,11.25c-1.35,7.81 7.51,15.82 13,23.21l16.52,0l0,0l16,0c5.51,-7.39 14.37,-15.4 13,-23.21l17.85,-11.26c-4.53,-3.94 -9.1,-7.83 -16.3,-14.03zm-30.53,-68.37l0,0l15.36,0c-3.81,26.88 -7.47,50.84 -11.27,77.65c-1.56,0.06 -3.09,-0.16 -4.62,-0.11l0,0c-1.36,0 -2.71,0.14 -4.09,0.09c-3.8,-26.81 -7.47,-50.77 -11.28,-77.65l15.9,0.02zm-44.48,0l21.86,0c4.21,26.4 8.39,52.55 12.56,78.69l-7,1.64c-11.89,-25.67 -17.59,-53.14 -27.42,-80.33zm43.95,111.07l0,0c-18.67,0.34 -22.91,-4.88 -16.85,-24.07l11.37,-0.82q3,-0.22 6,-0.22l0,0c1.82,0 3.65,0.06 5.47,0.2l11.38,0.81c6.13,19.42 1.76,24.56 -17.37,24.1zm17,-30.78l-7,-1.63l12.55,-78.69l21.86,0c-9.76,27.19 -15.47,54.69 -27.4,80.32l-0.01,0z" class="cls-2"/>
 </g>
</svg>